<?xml version="1.0" encoding="UTF-8"?>
<svg width="487px" height="516px" viewBox="0 0 487 516" version="1.1" xmlns="http://www.w3.org/2000/svg" xmlns:xlink="http://www.w3.org/1999/xlink">
    <!-- Generator: sketchtool 63.1 (101010) - https://sketch.com -->
    <title>FE86D9A5-CB5B-4BB7-BB8C-740C91A0A83D</title>
    <desc>Created with sketchtool.</desc>
    <defs>
        <path d="M25.4684366,0.0991150442 C23.0896755,0.0991150442 20.7150442,1.2740413 19.360472,3.62389381 L19.360472,3.62389381 L1.01179941,35.3921239 C-1.70973451,40.0920354 1.69528024,45.9873156 7.12389381,45.9873156 L7.12389381,45.9873156 L18.5902655,45.9873156 C19.5814159,45.9873156 20.4383481,45.3038348 20.6572271,44.3436578 L20.6572271,44.3436578 L22.4041298,36.8047198 C22.4041298,36.0179941 21.7764012,35.3921239 20.9917404,35.3921239 L20.9917404,35.3921239 L16.9176991,35.3921239 C15.2887021,35.3921239 14.2705015,33.6309735 15.0840708,32.220649 L15.0840708,32.220649 L23.6410029,17.3926254 C24.4566372,15.980236 26.4928319,15.980236 27.3082596,17.3926254 L27.3082596,17.3926254 L35.8651917,32.220649 C36.6787611,33.6330383 35.6605605,35.3921239 34.0294985,35.3921239 L34.0294985,35.3921239 L29.9265487,35.3921239 C29.1416814,35.3921239 28.5162242,36.0179941 28.5162242,36.8047198 L28.5162242,36.8047198 L30.2631268,44.3436578 C30.479941,45.3038348 31.3389381,45.9873156 32.3280236,45.9873156 L32.3280236,45.9873156 L43.8253687,45.9873156 C49.2519174,45.9873156 52.6571386,40.1085546 49.9374631,35.3921239 L49.9374631,35.3921239 L31.5846608,3.62389381 C30.2238938,1.2740413 27.8451327,0.0991150442 25.4684366,0.0991150442 Z" id="path-1"></path>
        <linearGradient x1="-4.82432514e-06%" y1="49.9999799%" x2="99.9998208%" y2="49.9999799%" id="linearGradient-3">
            <stop stop-color="#EF3F56" offset="0%"></stop>
            <stop stop-color="#F7B149" offset="100%"></stop>
        </linearGradient>
        <path d="M25.4684366,0.0991150442 C23.0896755,0.0991150442 20.7150442,1.2740413 19.360472,3.62389381 L19.360472,3.62389381 L1.01179941,35.3921239 C-1.70973451,40.0920354 1.69528024,45.9873156 7.12389381,45.9873156 L7.12389381,45.9873156 L18.5902655,45.9873156 C19.5814159,45.9873156 20.4383481,45.3038348 20.6572271,44.3436578 L20.6572271,44.3436578 L22.4041298,36.8047198 C22.4041298,36.0179941 21.7764012,35.3921239 20.9917404,35.3921239 L20.9917404,35.3921239 L16.9176991,35.3921239 C15.2887021,35.3921239 14.2705015,33.6309735 15.0840708,32.220649 L15.0840708,32.220649 L23.6410029,17.3926254 C24.4566372,15.980236 26.4928319,15.980236 27.3082596,17.3926254 L27.3082596,17.3926254 L35.8651917,32.220649 C36.6787611,33.6330383 35.6605605,35.3921239 34.0294985,35.3921239 L34.0294985,35.3921239 L29.9265487,35.3921239 C29.1416814,35.3921239 28.5162242,36.0179941 28.5162242,36.8047198 L28.5162242,36.8047198 L30.2631268,44.3436578 C30.479941,45.3038348 31.3389381,45.9873156 32.3280236,45.9873156 L32.3280236,45.9873156 L43.8253687,45.9873156 C49.2519174,45.9873156 52.6571386,40.1085546 49.9374631,35.3921239 L49.9374631,35.3921239 L31.5846608,3.62389381 C30.2238938,1.2740413 27.8451327,0.0991150442 25.4684366,0.0991150442 Z" id="path-4"></path>
        <polygon id="path-6" points="0.0743362832 0.0785073746 11.0162242 0.0785073746 11.0162242 18.9970501 0.0743362832 18.9970501"></polygon>
        <polygon id="path-8" points="0.14660767 0.0785073746 11.0905605 0.0785073746 11.0905605 18.9970501 0.14660767 18.9970501"></polygon>
        <polygon id="path-10" points="0.0350825959 0.0391297935 8.85425664 0.0391297935 8.85425664 13.8348083 0.0350825959 13.8348083"></polygon>
    </defs>
    <g id="Page-1" stroke="none" stroke-width="1" fill="none" fill-rule="evenodd">
        <g id="Login" transform="translate(-192.000000, -164.000000)">
            <g id="Illustration" transform="translate(150.000000, 158.000000)">
                <g id="Group-4" transform="translate(48.000000, 310.000000)">
                    <path d="M46.9501259,72.5599022 C45.6083437,69.3468597 43.3957475,66.4899469 42.5865149,63.101027 C41.4025894,58.1537115 43.3888087,52.8432662 42.1537099,47.9082008 C41.5899358,45.655921 39.7225427,43.2706394 37.4683139,43.7501458 C35.8368386,44.0984004 34.8706166,45.7722975 33.4802631,46.6980598 C30.8409333,48.4559581 27.1581878,47.166191 24.8762039,44.9576618 C22.5942201,42.7500075 21.1795809,39.7907183 19.1265761,37.3643112 C16.1854103,33.8896402 11.9076663,31.5971099 7.40528011,31.0843531 C5.47890759,30.8647252 3.36779065,31.0152271 1.86121294,32.2463685 C0.09096246,33.6936376 -0.370464908,36.3466727 0.281778289,38.5499519 C0.933154141,40.7523561 2.50478269,42.56188 4.22646188,44.0669 C6.98028122,46.4731818 10.2362931,48.2914559 13.7195494,49.3677201 C14.6727612,49.6625991 15.6927585,49.9321026 16.3901036,50.6513621 C17.0865814,51.3714967 17.2496422,52.7233896 16.4352055,53.3052723 C15.4446979,54.0149067 14.1141912,53.0646441 12.8990413,53.0996446 C11.8929215,53.1285199 11.0056279,53.8827799 10.5840984,54.8059172 C10.1634362,55.7281794 10.1417526,56.7886934 10.2666502,57.7958317 C10.6673634,61.0088743 12.5642462,63.9987889 15.2894432,65.7094365 C15.913064,66.1005667 16.6416336,66.5135722 16.8003576,67.2354567 C16.957347,67.9520912 16.4577565,68.6617256 15.8558193,69.0756061 C15.2556168,69.4877365 14.5435268,69.7108645 13.9363855,70.1151199 C11.8677685,71.4941381 11.6691465,74.7124307 13.0126634,76.8159586 C14.355313,78.9194864 16.7882148,80.0596265 19.199433,80.6432592 C25.6724263,82.210405 32.3214906,80.5741333 38.8690756,80.9311381 C41.1224371,81.0545147 45.2353855,83.0355409 46.8139528,81.2732676 C48.7628763,79.0971138 47.9441029,74.9416838 46.9501259,72.5599022" id="Fill-34" fill="#C2C2C2"></path>
                    <path d="M45,82 C45,82 33.1461938,55.2219925 7,38" id="Stroke-36" stroke="#FFFFFF" stroke-width="0.79" stroke-linecap="round" stroke-linejoin="round"></path>
                    <path d="M40.3768859,64.0462862 C39.619597,61.8831366 38.56474,59.8092432 38.1541824,57.5533373 C37.7427623,55.2965563 38.1101941,52.7125026 39.7981377,51.1837719 C42.0648296,49.13088 45.7969359,49.6777928 48.1576419,47.7351585 C52.091577,44.4965596 49.4307154,37.2038055 52.9566804,33.5128003 C54.7903892,31.5937926 57.7401936,31.325149 60.3510293,31.6786735 C62.9627275,32.0313229 65.5338874,32.8836318 68.1645609,32.7471223 C71.3006687,32.5869863 74.1909595,31.0442546 77.2477159,30.3188295 C80.7702309,29.4831467 85.7236597,30.0904387 85.9772394,34.5654981 C86.2549695,39.4850882 83.9606772,43.503366 80.7547056,46.9651053 C78.8494079,49.0249977 77.1252386,51.6151768 77.3572554,54.4302464 C77.5375212,56.6187727 78.8606206,58.504528 79.8896021,60.4366616 C80.9177211,62.3687952 81.6741475,64.7515849 80.696917,66.7108454 C79.8335386,68.4443402 77.8549271,69.3045247 75.9642922,69.6072956 C73.2439171,70.0439508 70.4709284,69.6142961 67.7169151,69.5810438 C62.3253282,69.5154143 58.7156991,72.2954815 55.1405707,76.0293646 C52.8919917,78.3797771 48.9520191,83.3816229 45.1733369,81.6385024 C42.7910679,80.5394264 42.0148036,77.1363161 41.819875,74.7719027 C41.5136819,71.0555207 41.6352966,67.6392846 40.3768859,64.0462862" id="Fill-38" fill="#B8B8B8"></path>
                    <path d="M45,81 C45,81 45,58.7770493 76,38" id="Stroke-40" stroke="#FFFFFF" stroke-width="0.79" stroke-linecap="round" stroke-linejoin="round"></path>
                    <path d="M45,82 C45,82 34.54983,44.2870837 15.175704,18.5865265 C14.8892668,18.2074366 13.2890491,16.3729897 13,16" id="Stroke-42" stroke="#919191" stroke-width="0.79" stroke-linecap="round" stroke-linejoin="round"></path>
                    <path d="M43,75.5968624 C43,75.5968624 25.5543876,69.057596 23.5365839,71.5779206 C19.2667443,76.9130319 41.8467259,76.1806952 43,75.5968624" id="Fill-44" fill="#919191"></path>
                    <path d="M38,61.8073753 C38,61.8073753 20.7840091,53.9306977 18.6119502,56.5239029 C14.0129524,62.0134032 36.8062687,62.3668556 38,61.8073753" id="Fill-46" fill="#919191"></path>
                    <path d="M34,51.8334409 C34,51.8334409 16.912355,43.9778274 14.6551598,46.498745 C9.8768951,51.8343311 32.7608605,52.3764351 34,51.8334409" id="Fill-48" fill="#919191"></path>
                    <path d="M29,40.8312794 C29,40.8312794 11.8879988,32.974632 9.64718369,35.5004607 C4.90171979,40.8482253 27.7684813,41.3762234 29,40.8312794" id="Fill-50" fill="#919191"></path>
                    <path d="M22,28.9550649 C22,28.9550649 6.1701271,20.1518009 3.76228291,22.3534719 C-1.33531204,27.0133193 20.7568524,29.3603434 22,28.9550649" id="Fill-52" fill="#919191"></path>
                    <path d="M22.5636878,29 C22.5636878,29 20.7990746,10.6322106 23.5141655,9.26588086 C29.2616957,6.37438662 23.3496146,27.9987269 22.5636878,29" id="Fill-54" fill="#919191"></path>
                    <path d="M27.5636878,40 C27.5636878,40 25.7990746,21.6313331 28.5141655,20.2658809 C34.2616957,17.3743866 28.3496146,38.9987269 27.5636878,40" id="Fill-56" fill="#919191"></path>
                    <path d="M33.122147,52 C33.122147,52 32.2117847,33.4037486 35.3616736,32.2080416 C42.0296777,29.6777769 34.0697755,51.0448494 33.122147,52" id="Fill-58" fill="#919191"></path>
                    <path d="M38,62 C38,62 39.5265831,43.8455964 42.7296351,43.0918313 C49.5108869,41.4968953 39.040537,61.1951761 38,62" id="Fill-60" fill="#919191"></path>
                    <path d="M43,75 C43,75 44.5265831,56.8455928 47.7296351,56.0918275 C54.5108869,54.4968913 44.040537,74.1960414 43,75" id="Fill-62" fill="#919191"></path>
                    <path d="M14,17 C14,17 6.08888486,-0.353165377 2.7262603,0.00548370272 C-4.39071634,0.764975871 12.7162021,16.580697 14,17" id="Fill-64" fill="#919191"></path>
                </g>
                <g id="Group-6">
                    <g id="5.-Illustrations-/3.-Scenes/-App-Development-Copy" transform="translate(97.000000, 0.000000)">
                        <g id="Phone" transform="translate(83.000000, 74.500000)">
                            <path d="M140.511628,0.0314288798 C149.64706,0.57652052 156.887043,8.14383677 156.887043,17.3989455 L156.887043,282.601054 C156.887043,291.856163 149.64706,299.423479 140.511628,299.968571 L140.511628,300 L72.3687708,300 L72.3687708,0 L140.511628,0 L140.511628,0.0314288798 L140.511628,0.0314288798 Z" id="Path" fill="#B8B8B8"></path>
                            <path d="M151.076412,267.311072 L151.076412,279.43761 C151.076412,290.793904 141.852883,300 130.475083,300 L20.6013289,300 C9.22352912,300 0,290.793904 0,279.43761 L0,20.5623902 C0,9.20609565 9.22352912,0 20.6013289,0 L130.475083,0 C141.852883,0 151.076412,9.20609565 151.076412,20.5623902 L151.076412,46.397188 L156.887043,46.397188 L156.887043,48.5061511 L151.076412,48.5061511 L151.076412,265.202109 L156.887043,265.202109 L156.887043,267.311072 L151.076412,267.311072 Z" id="Path" fill="#B8B8B8"></path>
                            <path d="M20.6013289,1.31810193 L130.475083,1.31810193 C140.977667,1.31810193 149.491694,9.81603638 149.491694,20.2987698 L149.491694,279.70123 C149.491694,290.183964 140.977667,298.681898 130.475083,298.681898 L20.6013289,298.681898 C10.0987445,298.681898 1.58471761,290.183964 1.58471761,279.70123 L1.58471761,20.2987698 C1.58471761,9.81603638 10.0987445,1.31810193 20.6013289,1.31810193 Z" id="Rectangle" fill="#919191"></path>
                            <path d="M39.089701,11.599297 L39.089701,14.2355009 C39.089701,18.0209324 42.1642107,21.0896309 45.9568106,21.0896309 L104.591362,21.0896309 C108.383962,21.0896309 111.458472,18.0209324 111.458472,14.2355009 L111.458472,11.599297 C111.458472,9.85217478 112.877476,8.43585237 114.627907,8.43585237 L128.362126,8.43585237 C135.363849,8.43585237 141.039867,14.101142 141.039867,21.0896309 L141.039867,278.910369 C141.039867,285.898858 135.363849,291.564148 128.362126,291.564148 L22.7142857,291.564148 C15.7125628,291.564148 10.0365449,285.898858 10.0365449,278.910369 L10.0365449,21.0896309 C10.0365449,14.101142 15.7125628,8.43585237 22.7142857,8.43585237 L35.9202658,8.43585237 C37.6706965,8.43585237 39.089701,9.85217478 39.089701,11.599297 Z" id="Path" fill="#F2F8F9"></path>
                            <g id="Group-25" transform="translate(35.000000, 105.500000)">
                                <g id="Group-6" transform="translate(17.964602, 0.107375)">
                                    <g id="Group-3">
                                        <mask id="mask-2" fill="white">
                                            <use xlink:href="#path-1"></use>
                                        </mask>
                                        <g id="Clip-2"></g>
                                        <path d="M25.4684366,0.0991150442 C23.0896755,0.0991150442 20.7150442,1.2740413 19.360472,3.62389381 L19.360472,3.62389381 L1.01179941,35.3921239 C-1.70973451,40.0920354 1.69528024,45.9873156 7.12389381,45.9873156 L7.12389381,45.9873156 L18.5902655,45.9873156 C19.5814159,45.9873156 20.4383481,45.3038348 20.6572271,44.3436578 L20.6572271,44.3436578 L22.4041298,36.8047198 C22.4041298,36.0179941 21.7764012,35.3921239 20.9917404,35.3921239 L20.9917404,35.3921239 L16.9176991,35.3921239 C15.2887021,35.3921239 14.2705015,33.6309735 15.0840708,32.220649 L15.0840708,32.220649 L23.6410029,17.3926254 C24.4566372,15.980236 26.4928319,15.980236 27.3082596,17.3926254 L27.3082596,17.3926254 L35.8651917,32.220649 C36.6787611,33.6330383 35.6605605,35.3921239 34.0294985,35.3921239 L34.0294985,35.3921239 L29.9265487,35.3921239 C29.1416814,35.3921239 28.5162242,36.0179941 28.5162242,36.8047198 L28.5162242,36.8047198 L30.2631268,44.3436578 C30.479941,45.3038348 31.3389381,45.9873156 32.3280236,45.9873156 L32.3280236,45.9873156 L43.8253687,45.9873156 C49.2519174,45.9873156 52.6571386,40.1085546 49.9374631,35.3921239 L49.9374631,35.3921239 L31.5846608,3.62389381 C30.2238938,1.2740413 27.8451327,0.0991150442 25.4684366,0.0991150442 Z" id="Fill-1" fill="url(#linearGradient-3)" mask="url(#mask-2)"></path>
                                    </g>
                                    <mask id="mask-5" fill="white">
                                        <use xlink:href="#path-4"></use>
                                    </mask>
                                    <g id="Clip-5"></g>
                                    <polygon id="Fill-4" fill="#EF3F56" mask="url(#mask-5)" points="-1.70973451 45.9873156 52.6571386 45.9873156 52.6571386 0.0991150442 -1.70973451 0.0991150442"></polygon>
                                </g>
                                <g id="Group-24" transform="translate(0.000000, 50.903835)">
                                    <path d="M7.92920354,13.1326814 L3.95634218,13.1326814 C3.30176991,13.1326814 2.98171091,13.481649 2.98171091,14.1795841 L2.98171091,14.9954248 C2.98171091,15.620882 3.30176991,15.9411475 3.95634218,15.9411475 L7.92920354,15.9411475 L7.92920354,13.1326814 Z M3.50619469,18.9969882 C1.16253687,18.9969882 0,17.7456608 0,15.2432124 L0,13.8884336 C0,11.7347463 1.17699115,10.6444808 3.53510324,10.6444808 L7.92920354,10.6444808 L7.92920354,9.85796165 C7.92920354,8.89757817 7.49351032,8.4309115 6.63451327,8.4309115 L0.828023599,8.4309115 L0.828023599,5.14153097 L6.63244838,5.14153097 C9.5439528,5.14153097 11.0141593,6.68421534 11.0141593,9.75471681 L11.0141593,18.9951298 L3.50619469,18.9951298 L3.50619469,18.9969882 Z" id="Fill-7" fill="#161323"></path>
                                    <g id="Group-11" transform="translate(13.008850, 0.000000)">
                                        <mask id="mask-7" fill="white">
                                            <use xlink:href="#path-6"></use>
                                        </mask>
                                        <g id="Clip-10"></g>
                                        <path d="M7.81356932,8.43101475 L4.59646018,8.43101475 C3.73952802,8.43101475 3.30176991,8.91213569 3.30176991,9.85785841 L3.30176991,14.2829322 C3.30176991,15.2431091 3.73952802,15.7097758 4.59646018,15.7097758 L7.81356932,15.7097758 L7.81356932,8.43101475 Z M4.48289086,18.9970914 C1.54247788,18.9970914 0.0743362832,17.4546136 0.0743362832,14.3841121 L0.0743362832,9.77113274 C0.0743362832,6.68617699 1.54247788,5.1579469 4.48289086,5.1579469 L7.79911504,5.1579469 L7.79911504,0.0785073746 L11.0162242,0.0785073746 L11.0162242,18.9970914 L4.48289086,18.9970914 Z" id="Fill-9" fill="#161323" mask="url(#mask-7)"></path>
                                    </g>
                                    <g id="Group-14" transform="translate(26.017699, 0.000000)">
                                        <mask id="mask-9" fill="white">
                                            <use xlink:href="#path-8"></use>
                                        </mask>
                                        <g id="Clip-13"></g>
                                        <path d="M7.87345133,8.43101475 L4.65840708,8.43101475 C3.79941003,8.43101475 3.36371681,8.91213569 3.36371681,9.85785841 L3.36371681,14.2829322 C3.36371681,15.2431091 3.79941003,15.7097758 4.65840708,15.7097758 L7.87345133,15.7097758 L7.87345133,8.43101475 Z M4.55516224,18.9970914 C1.61474926,18.9970914 0.14660767,17.4546136 0.14660767,14.3841121 L0.14660767,9.77113274 C0.14660767,6.68617699 1.61474926,5.1579469 4.55516224,5.1579469 L7.87345133,5.1579469 L7.87345133,0.0785073746 L11.0905605,0.0785073746 L11.0905605,18.9970914 L4.55516224,18.9970914 Z" id="Fill-12" fill="#161323" mask="url(#mask-9)"></path>
                                    </g>
                                    <path d="M47.0467109,13.1326814 L43.0738496,13.1326814 C42.4190708,13.1326814 42.0992183,13.481649 42.0992183,14.1795841 L42.0992183,14.9954248 C42.0992183,15.620882 42.4190708,15.9411475 43.0738496,15.9411475 L47.0467109,15.9411475 L47.0467109,13.1326814 Z M42.6237021,18.9969882 C40.2798378,18.9969882 39.1175074,17.7456608 39.1175074,15.2432124 L39.1175074,13.8884336 C39.1175074,11.7347463 40.294292,10.6444808 42.6526106,10.6444808 L47.0609587,10.6444808 L47.0609587,9.85796165 C47.0609587,8.89757817 46.625472,8.4309115 45.7664749,8.4309115 L39.9453245,8.4309115 L39.9453245,5.14153097 L45.7518142,5.14153097 C48.6633186,5.14153097 50.1314602,6.68421534 50.1314602,9.75471681 L50.1314602,18.9951298 L42.6237021,18.9951298 L42.6237021,18.9969882 Z" id="Fill-15" fill="#161323"></path>
                                    <path d="M63.8239971,18.9825546 L54.3378614,18.9825546 L54.3378614,14.6173628 C54.3378614,12.7405782 55.8636136,11.1978938 57.7571239,11.1978938 L60.4189823,11.1978938 C60.7989233,11.1978938 61.1043215,10.8922891 61.1043215,10.514413 L61.1043215,8.62296755 C61.1043215,8.24509145 60.7989233,7.93969322 60.4189823,7.93969322 L54.3523156,7.93969322 L54.3523156,5.20370501 L60.4189823,5.20370501 C62.2978319,5.20370501 63.8403097,6.73152212 63.8403097,8.62296755 L63.8403097,10.514413 C63.8403097,12.3914041 62.314351,13.933882 60.4189823,13.933882 L57.7571239,13.933882 C57.3792478,13.933882 57.0738496,14.2394867 57.0738496,14.6173628 L57.0738496,16.2465664 L63.8260619,16.2465664 L63.8260619,18.9825546 L63.8239971,18.9825546 Z" id="Fill-17" fill="#EF3F56"></path>
                                    <g id="Group-21" transform="translate(65.870206, 5.162242)">
                                        <mask id="mask-11" fill="white">
                                            <use xlink:href="#path-10"></use>
                                        </mask>
                                        <g id="Clip-20"></g>
                                        <path d="M6.08935988,0.0391297935 L6.08935988,5.46774336 L3.6589764,5.46774336 C3.19230973,5.46774336 2.79997935,5.08986726 2.79997935,4.6089528 L2.79997935,0.0391297935 L0.0350825959,0.0391297935 L0.0350825959,5.46774336 C0.0350825959,6.99576696 1.27195575,8.23284661 2.79997935,8.23284661 L6.08935988,8.23284661 L6.08935988,13.8349115 L8.85425664,13.8349115 L8.85425664,0.0391297935 L6.08935988,0.0391297935 Z" id="Fill-19" fill="#EF3F56" mask="url(#mask-11)"></path>
                                    </g>
                                    <path d="M85.5527817,6.55404425 C85.5527817,6.69838053 85.5238732,6.83074041 85.4784454,6.96082891 C85.4350826,7.07625664 85.3772655,7.19416224 85.3029292,7.29534218 C85.2306578,7.39652212 85.1441386,7.48324779 85.0408938,7.54312979 C85.0408938,7.54312979 85.026233,7.54312979 85.026233,7.55737758 C84.9828702,7.58649263 84.9250531,7.61540118 84.8796254,7.64410324 C84.8796254,7.64410324 84.8651711,7.64410324 84.8651711,7.65876401 C84.8218083,7.68746608 84.7619263,7.70212684 84.7185634,7.71658112 L84.7041091,7.71658112 C84.646292,7.73082891 84.5884749,7.74548968 84.5451121,7.75994395 L84.5017493,7.75994395 C84.4439322,7.77419174 84.386115,7.77419174 84.326233,7.77419174 C83.6406873,7.77419174 83.0893599,7.22079941 83.0893599,6.53752507 C83.0893599,6.47970796 83.0893599,6.42168437 83.1038142,6.36180236 L83.1038142,6.31843953 C83.1182684,6.25855752 83.1308643,6.2030118 83.147177,6.15758407 L83.147177,6.14312979 C83.1616313,6.08510619 83.1905398,6.04194985 83.2049941,5.99858702 C83.2049941,5.98392625 83.2049941,5.98392625 83.2194484,5.96967847 C83.2483569,5.91186136 83.2772655,5.86849853 83.3082389,5.82513569 L83.3226932,5.81047493 C83.3949646,5.70723009 83.4816903,5.62050442 83.5684159,5.54843953 C83.6716608,5.47596165 83.7728407,5.41835103 83.8884749,5.3749882 C84.0185634,5.33162537 84.1651711,5.30251032 84.3097139,5.30251032 C84.9993894,5.30251032 85.5527817,5.87035693 85.5527817,6.55404425 M86.8743156,6.55404425 C86.8743156,5.12720059 85.726233,3.9789115 84.2993894,3.9789115 C83.3681209,3.9789115 82.5690059,4.47469322 82.1167935,5.20133038 L76.8058791,5.20133038 L76.8058791,7.96643363 L82.0467935,7.96643363 C82.0899499,7.96643363 82.1188584,7.96643363 82.1601563,7.98068142 C82.3501268,8.27183186 82.5979145,8.51982596 82.8890649,8.70773156 C82.8890649,8.7510944 82.9035192,8.77979646 82.9035192,8.82315929 L82.9035192,18.9950472 L85.666351,18.9950472 L85.666351,8.72218584 C86.3952596,8.27183186 86.8743156,7.47271681 86.8743156,6.55404425" id="Fill-22" fill="#EF3F56"></path>
                                </g>
                            </g>
                            <path d="M156.094684,66.4323374 C157.699246,66.4323374 159,67.730633 159,69.3321617 L159,98.3304042 C159,99.9319329 157.699246,101.230228 156.094684,101.230228 C154.490123,101.230228 153.189369,99.9319329 153.189369,98.3304042 L153.189369,69.3321617 C153.189369,67.730633 154.490123,66.4323374 156.094684,66.4323374 Z" id="Rectangle" fill="#C2D5DA"></path>
                            <path d="M156.887043,66.4323374 C158.053997,66.4323374 159,67.3765524 159,68.5413005 L159,99.1212654 C159,100.286014 158.053997,101.230228 156.887043,101.230228 C155.720089,101.230228 154.774086,100.286014 154.774086,99.1212654 L154.774086,68.5413005 C154.774086,67.3765524 155.720089,66.4323374 156.887043,66.4323374 Z" id="Rectangle" fill="#97B2B8"></path>
                        </g>
                        <g id="UI" transform="translate(7.000000, 144.500000)">
                            <rect id="Rectangle" fill="#585858" x="0" y="0.264516129" width="120" height="81.4709677" rx="14"></rect>
                            <rect id="Rectangle" fill="#B9B9B9" x="10.5263158" y="21.9548387" width="68.4210526" height="7.40645161" rx="3.70322581"></rect>
                            <rect id="Rectangle" fill="#B9B9B9" x="10.5263158" y="12.9612903" width="87.8947368" height="7.40645161" rx="3.70322581"></rect>
                            <rect id="Rectangle" fill="#FFFFFF" x="10.5263158" y="52.1096774" width="98.4210526" height="20.6322581" rx="10.316129"></rect>
                        </g>
                        <g id="Graph" transform="translate(238.200863, 83.768617) rotate(30.000000) translate(-238.200863, -83.768617) translate(189.700863, 15.768617)">
                            <rect id="Rectangle" fill="#585858" x="0.163958612" y="0.397150878" width="96.5116594" height="134.989293" rx="16"></rect>
                            <g id="Diagram" transform="translate(17.560091, 12.055261)">
                                <path d="M28.8065466,3.25251656 L28.8065466,12.7983927 C18.0477779,12.7983927 9.31302721,21.5209294 9.31302721,32.2646538 C9.31302721,43.0084783 18.0477779,51.730915 28.8065466,51.730915 L28.8065466,60.9107647 C12.901988,60.8767348 0,47.9719218 0,32.0816006 C0,16.1913794 12.901988,3.28652645 28.8065466,3.25251656 Z" id="Shape" fill="#FFFFFF"></path>
                                <path d="M7.72134238,53.4035557 L15.0309479,46.1265985 C18.8323592,49.9111823 23.819553,51.8034742 28.8065466,51.8034742 L28.8065466,62.093498 C20.5839536,62.0766351 13.1333956,58.7597474 7.72134238,53.4035557 Z" id="Shape" fill="#6FE7DD"></path>
                                <path d="M28.8065466,0 C46.6721835,0 61.1767896,14.4415783 61.1767896,32.2294823 L48.3961349,32.2294823 C48.3961349,21.4646728 39.6183372,12.7250178 28.8065466,12.7250178 L28.8065466,0 Z" id="Shape" fill="#EE3E56"></path>
                                <path d="M60.2858655,32.2294823 C60.1865251,49.3816126 46.1476921,63.2762313 28.8700196,63.2762313 C28.8488619,63.2762313 28.8277042,63.2762313 28.8065466,63.2762313 L28.8065466,51.7198884 C39.6277986,51.7198884 48.4132777,42.9865328 48.4132777,32.2294823 L60.2858655,32.2294823 Z" id="Shape" fill="#00D2FF"></path>
                            </g>
                            <g id="Legend" transform="translate(20.740986, 81.793974)">
                                <path d="M8.89119403,2.1332751 C8.89119403,1.1147364 7.94595173,0.287652338 6.78165711,0.287652338 L2.56255308,0.287652338 C1.39825846,0.287652338 0.453016157,1.1147364 0.453016157,2.1332751 L0.453016157,5.82452063 C0.453016157,6.84305933 1.39825846,7.66987932 2.56255308,7.66987932 L6.78165711,7.66987932 C7.94595173,7.66987932 8.89119403,6.84305933 8.89119403,5.82452063 L8.89119403,2.1332751 Z" id="Shape" fill="#EE3E56"></path>
                                <path d="M9.07037133,12.9896083 C9.07037133,11.9708055 8.12512903,11.1439855 6.96083441,11.1439855 L2.74173038,11.1439855 C1.57743576,11.1439855 0.63219346,11.9708055 0.63219346,12.9896083 L0.63219346,16.6805898 C0.63219346,17.6991285 1.57743576,18.5262125 2.74173038,18.5262125 L6.96083441,18.5262125 C8.12512903,18.5262125 9.07037133,17.6991285 9.07037133,16.6805898 L9.07037133,12.9896083 Z" id="Shape" fill="#00D2FF"></path>
                                <path d="M8.98585558,23.3892846 C8.98585558,22.3707459 8.04061328,21.5436619 6.87631866,21.5436619 L2.65721463,21.5436619 C1.49292001,21.5436619 0.547677706,22.3707459 0.547677706,23.3892846 L0.547677706,27.0803453 C0.547677706,28.0989104 1.49292001,28.9258888 2.65721463,28.9258888 L6.87631866,28.9258888 C8.04061328,28.9258888 8.98585558,28.0989104 8.98585558,27.0803453 L8.98585558,23.3892846 Z" id="Shape" fill="#6FE7DD"></path>
                                <path d="M9.16503288,34.2455452 C9.16503288,33.22695 8.21979058,32.3999951 7.05549596,32.3999951 L2.83639193,32.3999951 C1.67209731,32.3999951 0.726855009,33.22695 0.726855009,34.2455452 L0.726855009,37.9366719 C0.726855009,38.9552671 1.67209731,39.782222 2.83639193,39.782222 L7.05549596,39.782222 C8.21979058,39.782222 9.16503288,38.9552671 9.16503288,37.9366719 L9.16503288,34.2455452 Z" id="Shape" fill="#FFFFFF"></path>
                                <path d="M34.3987644,34.2921889 C34.3987644,33.2735937 33.4661506,32.4466387 32.3176539,32.4466387 L15.3843706,32.4466387 C14.2358144,32.4466387 13.3033197,33.2735937 13.3033197,34.2921889 L13.3033197,37.9833156 C13.3033197,39.0019107 14.2358144,39.8288657 15.3843706,39.8288657 L32.3176539,39.8288657 C33.4661506,39.8288657 34.3987644,39.0019107 34.3987644,37.9833156 L34.3987644,34.2921889 Z" id="Shape" fill="#B9B9B9"></path>
                                <path d="M42.1984987,23.5488245 C42.1984987,22.5302858 41.2708384,21.7032017 40.128442,21.7032017 L15.2622597,21.7032017 C14.1198041,21.7032017 13.1922623,22.5302858 13.1922623,23.5488245 L13.1922623,27.2398852 C13.1922623,28.2584503 14.1198041,29.0854287 15.2622597,29.0854287 L40.128442,29.0854287 C41.2708384,29.0854287 42.1984987,28.2584503 42.1984987,27.2398852 L42.1984987,23.5488245 Z" id="Shape" fill="#B9B9B9"></path>
                                <path d="M54.005353,12.9277483 C54.005353,11.9089456 53.079031,11.0821256 51.9382827,11.0821256 L14.9362469,11.0821256 C13.7954395,11.0821256 12.8692358,11.9089456 12.8692358,12.9277483 L12.8692358,16.6187298 C12.8692358,17.6372685 13.7954395,18.4643526 14.9362469,18.4643526 L51.9382827,18.4643526 C53.079031,18.4643526 54.005353,17.6372685 54.005353,16.6187298 L54.005353,12.9277483 Z" id="Shape" fill="#B9B9B9"></path>
                                <path d="M49.0986329,2.66936214 C49.0986329,1.65082344 48.1765356,0.823739379 47.0409898,0.823739379 L15.2939612,0.823739379 C14.1583565,0.823739379 13.236377,1.65082344 13.236377,2.66936214 L13.236377,6.36060767 C13.236377,7.37914637 14.1583565,8.20596636 15.2939612,8.20596636 L47.0409898,8.20596636 C48.1765356,8.20596636 49.0986329,7.37914637 49.0986329,6.36060767 L49.0986329,2.66936214 Z" id="Shape" fill="#B9B9B9"></path>
                            </g>
                        </g>
                        <g id="Character" transform="translate(203.000000, 107.500000)">
                            <path d="M173.867585,171.167276 C173.867585,171.167276 178.159973,171.661566 184.788813,174.373654 L179.219047,194.809165 C179.219047,194.809165 177.174032,194.401051 177.108596,189.850553 C177.048659,185.652344 178.890767,178.746924 179.044185,177.693849 C179.044185,177.693849 175.620613,176.09066 172.43789,176.15624 L173.867585,171.167276 Z" id="Shape" fill="#6D8388"></path>
                            <path d="M132.429615,224.348263 C132.429615,224.348263 132.920052,228.546266 131.783991,235.473214 L110.683273,234.831173 C110.683273,234.831173 110.617361,232.792127 115.021015,231.692484 C119.084013,230.6778 126.205344,230.856862 127.262459,230.762761 C127.262459,230.762761 127.928631,227.605251 127.262459,224.125108 L132.429615,224.348263 Z" id="Shape" fill="#6D8388"></path>
                            <path d="M107.27955,103.551474 C107.27955,103.551474 143.033473,139.109222 135.858693,227.445484 C135.706684,229.311036 128.168714,231.646064 124.882625,227.445484 C120.685574,184.191865 113.072685,144.018314 93.5819952,111.619058 L107.27955,103.551474 Z" id="Shape" fill="#3D0059"></path>
                            <path d="M99.6818823,105.915663 L116.779671,158.401757 C132.066527,158.437664 160.547327,163.328542 175.80658,169.067793 C179.044178,173.1521 176.036058,178.36239 172.492128,177.735355 C155.388385,174.710042 127.758388,174.592138 106.944018,175.181658 L76.4807169,114.449778 L99.6818823,105.915663 Z" id="Shape" fill="#6639A6"></path>
                            <path d="M0,40.7999165 C0,40.7999165 4.5394096,46.0608213 14.4688579,46.3381024 C14.4688579,46.3381024 18.0150505,46.0608213 20.4265269,42.7382284 C20.4265269,42.7382284 18.7241802,36.784652 14.0432712,34.1541996 C14.0432712,34.1541996 12.1635061,33.4275318 12.8018861,35.7116484 C12.8018861,35.7116484 14.0786461,38.1349367 14.0786461,40.6958032 L0,40.7999165 Z" id="Shape" fill="#FFC7C0"></path>
                            <path d="M76.0494333,14.5101087 C76.1746362,13.3689388 76.2659414,12.0553541 76.2085339,10.4831474 C76.0663822,6.55101422 75.7099093,3.88289644 75.7099093,3.88289644 C75.7099093,3.88289644 74.8548118,-0.330488252 76.3512324,0.0208067373 C76.3512324,0.0208067373 80.5195594,4.72503458 80.270247,17.6448238 L76.4939309,20.8048623 C76.4939309,20.8048623 74.5770691,18.5322208 73.4453224,15.7972923 C73.3764335,15.6281104 73.313012,15.4562344 73.2550578,15.2822033 C72.9866097,14.4788585 71.4716,9.66956544 72.6459922,9.21913199 C72.6459922,9.21913199 74.1309313,9.01977747 76.0494333,14.5101087 Z" id="Shape" fill="#FFC7C0"></path>
                            <path d="M71.5211567,23.0774446 C71.5211567,23.0774446 68.4648075,15.1393533 59.7173436,14.6767169 C53.0418171,14.3237227 46.8453388,18.9757587 44.5338773,26.9646598 C44.5338773,26.9646598 39.2713283,44.9293916 55.238887,53.4306691 C55.238887,53.4306691 54.188955,42.0027485 61.5078669,37.7448894 C69.022802,33.3736443 75.4818975,40.6961351 75.4818975,40.6961351 C75.4818975,40.6961351 80.2530462,38.9632543 80.7369279,31.8359801 C81.0698986,26.9288255 77.013563,22.5811133 71.5211567,23.0774446 Z" id="Shape" fill="#000000"></path>
                            <path d="M64.2102571,28.8431046 C64.2102571,28.8431046 69.4843366,33.8870989 76.9753891,34.4140994 C76.9753891,34.4140994 76.3555249,36.7210039 75.0440195,39.3595619 C76.1756155,38.8242396 78.0106247,38.2016387 78.5561448,39.4543447 C79.2529482,41.0559923 77.7419615,42.9539407 74.3701324,43.0986077 C75.2654034,51.3967216 80.2810009,55.3618325 80.2810009,55.3618325 C78.0379266,59.6367489 74.019425,60.5734601 70.8220245,59.8086667 C68.7208756,59.3057669 66.7137999,57.4698344 66.7137999,57.4698344 C69.3719393,54.6511652 69.2026679,49.1588191 68.9028311,46.3214084 C67.2935049,47.0781056 65.4283296,47.2763784 63.2929077,46.5345746 C58.9225833,44.3783715 59.5180176,38.2493132 64.2102571,28.8431046 Z" id="Combined-Shape" fill="#FFC7C0"></path>
                            <path d="M74.1055393,41.6097246 C74.8921938,41.6097246 75.5306458,42.2452229 75.5306458,43.028238 C75.5306458,43.811253 74.8921938,44.4467513 74.1055393,44.4467513 C73.3188848,44.4467513 72.6804328,43.811253 72.6804328,43.028238 C72.6804328,42.2452229 73.3188848,41.6097246 74.1055393,41.6097246 Z" id="Shape" fill="#6639A6"></path>
                            <path d="M76.8023986,114.472967 C76.8023986,114.472967 54.1633536,98.4993162 59.1457567,65.2516136 C59.1457567,65.2516136 93.9525487,70.3837515 107.358025,102.575518 C102.266506,112.288403 87.2769537,116.291912 76.8023986,114.472967 Z" id="Shape" fill="#CC162F"></path>
                            <path d="M80.737881,17.0221601 C80.737881,17.0221601 87.5579915,20.470822 93.2977472,28.3176993 C98.6854833,35.6733726 101.028681,44.8155852 99.8408852,53.8479233 C99.2613633,58.2244317 97.9170868,63.0550917 94.9722667,66.4482632 C109.238331,82.084554 124.777589,87.5858872 124.777589,87.5858872 C127.196374,116.970878 100.821897,125.774849 100.821897,125.774849 C77.0281771,111.863191 64.2009893,88.9450467 59.2745028,78.3554534 L59.1875683,78.1685111 C55.1923249,78.5376801 29.6260553,79.5103322 14.7261008,46.1439814 L20.1705271,40.4628185 C20.1705271,40.4628185 39.6201519,60.9953642 66.916791,56.5034322 C66.916791,56.5034322 66.9969716,56.6789461 67.1191505,57.0020167 C75.2879274,55.9060487 79.5451658,50.9407547 81.1149362,48.6273078 C83.3060348,42.9595165 84.7496006,32.9793266 76.411063,20.601702 L80.737881,17.0221601 Z" id="Combined-Shape" fill="#EE3E56"></path>
                            <path d="M87.035992,108.339444 C86.8403834,108.037092 86.9273774,107.633714 87.2302984,107.438473 C87.5332194,107.243233 87.9373574,107.330063 88.132966,107.632414 C91.949809,113.532094 100.659466,115.072298 105.784687,110.299567 C106.048344,110.054043 106.461491,110.068341 106.707477,110.331502 C106.953463,110.594663 106.939138,111.007033 106.675481,111.252556 C100.930571,116.602357 91.2773501,114.895294 87.035992,108.339444 Z" id="Stroke-72" fill="#9B2131"></path>
                            <path d="M63.6547581,57.4917269 L65.2261894,52.7569605 C65.2261894,52.7569605 74.7750804,53.8897506 77.4966132,48.7022913 L80.7560364,51.9182093 C80.7560364,51.9182093 78.2825962,60.5854813 63.6547581,57.4917269 Z" id="Shape" fill="#CC162F"></path>
                        </g>
                        <g id="Stairs" transform="translate(254.000000, 196.500000)">
                            <path d="M97.752381,179.564461 C98.2693122,179.564461 98.7650794,179.769502 99.1301587,180.134665 C99.4957672,180.499299 99.7010582,180.994461 99.7010582,181.510234 C99.7010582,181.510762 99.7010582,181.510762 99.7010582,181.510762 L99.6935165,181.681912 C99.6534587,182.135383 99.455144,182.562271 99.1301587,182.88686 C98.7650794,183.251494 98.2693122,183.456534 97.752381,183.456534 L97.752381,183.456534 L80.2550265,183.456534 C79.7386243,183.456534 79.2428571,183.251494 78.8777778,182.88686 C78.5121693,182.521697 78.3068783,182.027063 78.3068783,181.510762 L78.3068783,181.510762 C78.3068783,180.994461 78.5121693,180.499299 78.8777778,180.134665 C79.2428571,179.769502 79.7386243,179.564461 80.2550265,179.564461 L80.2550265,179.564461 Z M80.3827557,142.170965 C80.8991578,142.170965 81.394925,142.376006 81.7600043,142.741169 C82.1256128,143.105803 82.3309038,143.600965 82.3309038,144.116738 C82.3309038,144.633567 82.1256128,145.128201 81.7600043,145.493364 C81.394925,145.857998 80.8991578,146.063039 80.3827557,146.063039 L80.3827557,146.063039 L62.8854012,146.063039 C62.3684699,146.063039 61.8727028,145.857998 61.5076234,145.493364 C61.1420149,145.128201 60.9367239,144.633567 60.9367239,144.117266 L60.9367239,144.117266 L60.9442656,143.945728 C60.9843234,143.492541 61.1826381,143.065288 61.5076234,142.741169 C61.8727028,142.376006 62.3684699,142.170965 62.8854012,142.170965 L62.8854012,142.170965 Z M65.6361948,104.625274 C66.1525969,104.625274 66.6483641,104.829786 67.0139726,105.194949 C67.379052,105.560112 67.584343,106.054746 67.584343,106.571047 C67.584343,107.087347 67.379052,107.581982 67.0139726,107.947144 C66.6483641,108.311778 66.1525969,108.516819 65.6361948,108.516819 L65.6361948,108.516819 L48.1388403,108.516819 C47.6219091,108.516819 47.126671,108.311778 46.7610625,107.947144 C46.3959832,107.581982 46.1906922,107.087347 46.1906922,106.571047 L46.1906922,106.571047 L46.1982331,106.399897 C46.2382851,105.946426 46.4365475,105.519538 46.7610625,105.194949 C47.126671,104.829786 47.6219091,104.625274 48.1388403,104.625274 L48.1388403,104.625274 Z" id="Combined-Shape" fill="#5C5C5C"></path>
                            <path d="M3.8234964,0.00275396162 C3.97746465,0.034989734 4.13090381,0.0666970511 4.28487206,0.0989328234 C4.42878741,0.162875913 4.58011016,0.211493799 4.71661809,0.289705181 C4.99069217,0.446656401 5.22931651,0.65962388 5.41555989,0.914867783 C5.50868159,1.04169705 5.57376095,1.18596534 5.65259693,1.32177835 L41.858,81.91 L45.1770747,81.9105691 C45.6334015,81.9105691 46.0729439,82.0788397 46.4200387,82.3827196 L46.545718,82.5029675 C46.9088687,82.8823984 47.1126984,83.3965854 47.1126984,83.9329675 C47.1126984,84.469878 46.9088687,84.984065 46.545718,85.3634959 C46.2229173,85.7007678 45.7982112,85.9065131 45.3472627,85.9480704 L45.1770747,85.9558943 L43.675,85.955 L91.2282583,191.799786 C91.2769356,191.949339 91.3420149,192.094136 91.3753483,192.247388 C91.5758774,193.176941 91.1240255,194.194746 90.3033906,194.671412 C89.3510096,195.224177 88.0150308,194.964705 87.3473059,194.052591 C87.2547133,193.925762 87.1891049,193.780965 87.1102689,193.645152 L38.729,85.955 L14.417,85.9549166 L4.49757048,192.96873 L4.40497788,193.430599 C4.34307312,193.574868 4.29545407,193.726534 4.2187345,193.863404 C3.60709428,194.952551 2.0256128,195.36316 0.946776824,194.600599 C0.430374708,194.235437 0.0832847608,193.651494 0.00921068674,193.024217 C-0.00877873125,192.868323 0.00550698304,192.709786 0.00339058092,192.552835 L12.2303747,60.6630792 C12.447835,58.7099084 13.0631789,56.7953149 13.8594752,55.0260466 C15.3637141,51.684676 17.891912,48.7456248 21.2866379,47.1327238 L1.53513661,3.16767266 C1.40550698,2.77238811 1.33831122,2.67409543 1.3372449,2.2513312 C1.33460751,1.30803851 1.97905196,0.401737701 2.89016307,0.103160466 C3.29227947,-0.0284249002 3.40709428,0.00381087219 3.8234964,0.00275396162 Z M23.134,51.242 L23.1483641,51.2354369 C19.6203218,52.9175101 17.4938668,56.8518597 16.800216,60.6271442 C16.7626498,60.8295426 16.7197927,61.1281198 16.7197927,61.1281198 L14.792,81.9099166 L36.911,81.91 L23.134,51.242 Z" id="Combined-Shape" fill="#919191"></path>
                        </g>
                        <g id="5.-Illustrations-/1.-Characters/Philosophy" transform="translate(0.000000, 134.500000)">
                            <g id="Character" transform="translate(0.092330, 0.626082)">
                                <path d="M89.8637369,238.67803 C89.8637369,238.67803 91.4511263,247.41009 96.0227273,251.21222 L90.7843926,252.501082 C90.7843926,252.501082 86.244469,249.053383 84.9431818,240.772463 L89.8637369,238.67803 Z" id="Shape" fill="#FFC7C0"></path>
                                <path d="M12.4644886,237.994386 C12.4644886,237.994386 8.3677657,245.82838 9.825957,251.579545 L4.38323561,251.470042 C4.38323561,251.470042 2.99745395,243.219835 7.05270974,235.91342 L12.4644886,237.994386 Z" id="Shape" fill="#FFC7C0"></path>
                                <path d="M0.0568834137,253.161827 C-0.129389525,252.391245 -0.0246269669,248.866676 3.0174222,247.43263 C3.0174222,247.43263 5.0091373,251.463732 10.1563006,247.608379 C10.1563006,247.608379 16.9546241,253.787756 26.2514068,254.091935 C26.2514068,254.091935 28.4698179,256.125955 26.2508958,257.569535 L0.00899925906,257.513431 L0.0568834137,253.161827 Z" id="Shape" fill="#EE3E56"></path>
                                <path d="M54.1258305,5.52922078 C55.9890685,13.7856731 64.6306818,22.2185388 64.6306818,22.2185388 C64.6306818,22.2185388 63.0588773,28.3691826 56.2035676,27.1586215 C55.9074336,27.1062909 55.538397,27.0069222 55.112132,26.8551966 C54.9662136,30.6541699 55.1017667,35.9913983 56.3706833,41.2752437 C56.3706833,41.2752437 46.1883449,46.6634571 43.1395026,37.515306 C43.1395026,37.515306 46.0481639,29.8082279 45.0854439,18.0703279 C43.851524,16.0528489 42.7726903,13.6429662 42.0099432,10.786138 L54.1258305,5.52922078 Z" id="Combined-Shape" fill="#FFC7C0"></path>
                                <path d="M110.961776,87.2484861 L115.043332,85.7029221 C115.043332,85.7029221 114.880223,89.7733082 116.796875,91.9919243 L112.691403,93.5359848 C111.31478,92.454491 110.404526,89.263633 110.961776,87.2484861 Z" id="Shape" fill="#C2D5DA"></path>
                                <path d="M30.8968624,1.06209062 C35.9932105,-2.69422117 39.7589623,4.72009883 39.7589623,4.72009883 C48.7748291,0.471762382 55.7445709,4.64763794 55.7445709,4.64763794 C54.9560313,10.258478 48.4051347,11.5227009 44.5648264,11.7775241 C45.7376338,15.6587526 48.9751534,23.6568734 55.8747602,24.2865663 C55.8747602,24.2865663 62.5149282,24.8789215 62.0408135,19.3384502 L71.5553977,27.7114836 C71.5553977,27.7114836 68.4016383,37.6355853 58.78198,35.6862354 C55.0555656,34.9310396 51.2771887,32.9700899 48.0638765,30.0739372 C47.287307,32.6364419 44.8819634,31.2453455 44.8819634,31.2453455 C29.8368957,25.4915454 34.0383204,9.16554917 35.5329349,8.53366993 C28.3843109,5.98740435 30.8968624,1.06209062 30.8968624,1.06209062 Z" id="Combined-Shape" fill="#000000"></path>
                                <path d="M114.640877,86.3481575 C114.640877,86.3481575 119.30283,79.6572334 120.709625,80.0016119 C120.709625,80.0016119 121.681991,81.3945978 118.451818,85.9309106 C118.451818,85.9309106 125.433784,84.599813 128.947458,78.3306277 C128.947458,78.3306277 130.527617,81.7284952 129.17691,84.6951409 C126.905846,89.6816412 121.58919,91.566739 116.036454,92.1536797 C114.495557,90.4767063 114.278343,88.4823058 114.640877,86.3481575 Z" id="Shape" fill="#FFC7C0"></path>
                                <path d="M129.261498,78.9607128 C129.302031,78.8318819 129.435575,78.7615266 129.559778,78.8035699 C129.68398,78.8456131 129.751808,78.984134 129.711275,79.1129649 C129.69405,79.167714 129.659915,79.2663247 129.607841,79.4025688 C129.521936,79.6273293 129.416051,79.877174 129.289136,80.1458775 C128.926976,80.9126355 128.468193,81.6792016 127.903891,82.3955593 C127.328986,83.1253762 126.674974,83.7621193 125.937091,84.2786126 C125.828794,84.3544171 125.681758,84.3248048 125.608677,84.2124718 C125.535596,84.1001387 125.564144,83.947623 125.672442,83.8718185 C126.37005,83.3835159 126.990544,82.7794051 127.53752,82.0850436 C128.077244,81.3998864 128.517169,80.6648295 128.864265,79.9299644 C128.985589,79.6730998 129.086531,79.434917 129.168023,79.2217041 C129.216387,79.0951642 129.247227,79.006072 129.261498,78.9607128 Z" id="Stroke-74" fill="#F4B9B2"></path>
                                <path d="M55.6528781,108.889326 C66.7837341,150.509013 43.1102246,177.974048 43.1102246,177.974048 C29.7768629,206.139602 13.58131,243.51097 13.58131,243.51097 C9.24790399,246.394642 4.8753942,245.4539 0.461647727,240.443007 L23.6695687,174.746797 C23.6695687,174.746797 33.0488815,155.069478 30.0709027,139.198451 C26.9304149,122.461392 31.0129475,110.472582 34.2539879,105.055195 L55.6528781,108.889326 Z" id="Shape" fill="#3D0059"></path>
                                <path d="M43.8115391,104.65032 C43.8115391,104.65032 26.1159851,124.869275 51.7253757,139.094731 C51.7253757,139.094731 61.2081508,168.286229 63.4736047,183.260366 C63.4736047,183.260366 60.7999014,214.633563 84.6588526,247.369159 C84.6588526,247.369159 92.9936486,250.089098 96.0227273,243.138045 C86.7290788,217.979411 84.565306,195.855416 83.8977699,174.368761 L71.2781341,99.9867424 C71.2781341,99.9867424 61.1796801,106.300961 43.8115391,104.65032 Z" id="Shape" fill="#6639A6"></path>
                                <path d="M36.5695489,43.7729978 C47.9802484,56.2710162 24.9280815,87.7081802 24.9280815,87.7081802 L44.2246119,87.5622614 C44.3638772,90.1029647 44.8932862,92.7633315 46.1647727,95.6519172 C46.1647727,95.6519172 28.1296736,106.894226 12.2162325,104.168221 C-3.42853228,101.488163 12.5988348,55.3788416 36.5695489,43.7729978 Z" id="Shape" fill="#08A8CA"></path>
                                <path d="M85.5200945,254.541532 C85.3339657,253.770497 85.1065315,251.642631 87.1860754,248.935066 C87.1860754,248.935066 93.0376611,253.346971 96.7566689,248.354167 C96.7566689,248.354167 102.38184,255.167831 111.658197,255.472189 C111.658197,255.472189 113.871856,257.507359 111.658197,258.95184 L85.47216,258.895703 L85.5200945,254.541532 Z" id="Shape" fill="#EE3E56"></path>
                                <path d="M56.5148423,40.1479268 C56.5148423,40.1479268 47.2049148,45.2795636 43.0015425,37.3222403 C19.6803742,54.8967061 19.6155355,88.2235275 33.1713857,105.015356 C33.1713857,105.015356 52.8043456,114.422682 71.5553977,101.301871 C64.1293388,81.4492613 59.8550492,60.9019852 56.5148423,40.1479268 Z" id="Shape" fill="#00D2FF"></path>
                                <path d="M57.4475753,44.6945346 C69.404215,56.5727802 88.7567404,87.359689 88.7567404,87.359689 L112.079769,86.1561148 C111.95756,88.660301 112.606634,91.01512 114.026989,93.2190477 C114.026989,93.2190477 99.3903862,102.22477 83.2462097,100.132105 C50.9791544,95.9498249 49.8179218,52.4042171 57.4475753,44.6945346 Z" id="Shape" fill="#7BE8FF"></path>
                            </g>
                        </g>
                    </g>
                    <text id="“We-need-to-bring-le" font-family="NunitoSans-Regular, Nunito Sans" font-size="20" font-weight="normal" line-spacing="30" fill="#000000">
                        <tspan x="41.3720933" y="448">“We need to bring learning to people instead of people </tspan>
                        <tspan x="231.722093" y="478">to learning.”</tspan>
                    </text>
                    <text id="Elliott-Masie-(Educa" font-family="Gotham-BoldItalic, Gotham" font-size="12" font-style="italic" font-weight="bold" line-spacing="30">
                        <tspan x="148.418093" y="509" fill="#EE3E56">Elliott Masie</tspan>
                        <tspan x="223.034093" y="509" font-family="Gotham-Bold, Gotham" fill="#EE3E56"> </tspan>
                        <tspan x="226.634093" y="509" font-family="Gotham-BookItalic, Gotham" font-weight="300" fill="#000000">(Educational Technology Expert)</tspan>
                    </text>
                </g>
                <g id="Group-7" transform="translate(264.000000, 336.000000)">
                    <path d="M41.9190391,51.6702713 C43.0926645,48.8359746 45.0288002,46.3151323 45.7376491,43.3249889 C46.7727937,38.9595204 45.0357242,34.2735537 46.115875,29.9195316 C46.6083476,27.9313856 48.2432874,25.827015 50.2149088,26.2514111 C51.6421273,26.5578215 52.4877261,28.0344029 53.7054922,28.852378 C56.0146607,30.4029205 59.2369375,29.2644472 61.232793,27.3159233 C63.2295141,25.3682798 64.4680524,22.756747 66.2648417,20.6162763 C68.8388548,17.5504108 72.5821659,15.5270452 76.5202156,15.0744735 C78.2062202,14.8807657 80.0540743,15.0128392 81.3713736,16.1002441 C82.9206284,17.3769543 83.3239539,19.7181767 82.7535858,21.6614177 C82.1832177,23.6055392 80.8087951,25.2009867 79.3010846,26.5296459 C76.892383,28.6525068 74.0431391,30.2576397 70.9956944,31.2076882 C70.1613472,31.4674327 69.269011,31.7042844 68.6596952,32.3399981 C68.0486484,32.9757117 67.9067055,34.1678949 68.6190165,34.6812205 C69.4862529,35.3072487 70.6503577,34.4690224 71.7140639,34.4998396 C72.5934174,34.5253738 73.3706413,35.1910241 73.7393466,36.0054771 C74.106321,36.8199302 74.1262276,37.7541299 74.0163084,38.6434246 C73.6666442,41.4786018 72.0066048,44.1165492 69.6221373,45.6265893 C69.0768688,45.9708608 68.4389913,46.3353835 68.299645,46.9728582 C68.1620296,47.6050498 68.5999753,48.2319586 69.1262027,48.5964814 C69.6515645,48.9601237 70.2755939,49.1573534 70.8061487,49.5139517 C72.6167861,50.7307887 72.7890217,53.5703683 71.6145308,55.4264408 C70.4391744,57.2825133 68.3108965,58.2880327 66.2016598,58.8039997 C60.5369267,60.1863687 54.7189991,58.7423654 48.9902186,59.0575808 C47.0177317,59.165881 43.4180946,60.9136533 42.0384789,59.3587083 C40.3325677,57.4392405 41.0483407,53.7728809 41.9190391,51.6702713" id="Fill-66" fill="#C2C2C2"></path>
                    <path d="M43,59 C43,59 53.6062982,35.8719623 77,21" id="Stroke-68" stroke="#FFFFFF" stroke-width="0.79" stroke-linecap="round" stroke-linejoin="round"></path>
                    <path d="M32.7191174,56.6060277 C30.6669462,54.4198389 29.5426369,51.5635074 28.4139428,48.7980867 C27.6720039,46.9824677 26.9300651,44.6690037 25.5654589,43.2031749 C24.4402727,41.9927622 22.7573168,40.879321 21.4339295,39.8541933 C18.0583708,37.238559 14.2372981,35.185706 10.1741744,33.8211779 C7.78611352,33.0185652 5.0419922,32.2367321 3.90628203,30.0124473 C2.86528746,27.9734474 3.61862725,25.5067337 4.59735509,23.4365643 C5.57432893,21.3681267 6.79598473,19.2572639 6.65040335,16.9784326 C6.52586988,15.0190879 5.39717568,13.2684052 4.17464289,11.7194579 C2.00583111,8.9722194 -1.89066331,5.34357881 1.0691991,1.75996073 C2.33119673,0.232658892 4.59823208,-0.397656152 6.48114307,0.256901778 C8.39211794,0.920117882 9.6699015,2.64482608 11.0616946,4.09766762 C13.6663735,6.81893161 17.0401781,8.81637228 20.6990066,9.80253826 C25.5637049,11.1159832 31.2089299,10.8285318 34.9765058,14.1385516 C38.454673,17.1940211 39.0668164,22.2426022 39.5465334,26.8149837 C39.9718766,30.8609483 40.6120839,35.8835548 43.9701026,38.6905347 C47.1772779,41.3693737 48.9707353,45.9486817 49,50.1721388 C49.0654509,59.3480713 39.0966343,63.4000966 32.7191174,56.6060277" id="Fill-70" fill="#B8B8B8"></path>
                    <path d="M44,59 C44,59 42.8903548,36.8590264 13,14" id="Stroke-72" stroke="#FFFFFF" stroke-width="0.79" stroke-linecap="round" stroke-linejoin="round"></path>
                </g>
            </g>
        </g>
    </g>
</svg>